HIERARCHY
ROOT root
{
	OFFSET	0	13.1	24.9
	CHANNELS 6  Xposition Yposition Zposition Xrotation Yrotation Zrotation
	JOINT spine_1
	{
		OFFSET	0	9.99999	0
		CHANNELS 3  Xrotation Yrotation Zrotation
		JOINT spine_2
		{
			OFFSET	0	112	-10
			CHANNELS 3  Xrotation Yrotation Zrotation
			JOINT spine_3
			{
				OFFSET	0	206.5	19.3
				CHANNELS 3  Xrotation Yrotation Zrotation
				JOINT spine_4
				{
					OFFSET	0	110.4	14.6
					CHANNELS 3  Xrotation Yrotation Zrotation
					JOINT neck_1
					{
						OFFSET	0	71.8	-50.3
						CHANNELS 3  Xrotation Yrotation Zrotation
						JOINT neck_2
						{
							OFFSET	0	86.2	-25.8
							CHANNELS 3  Xrotation Yrotation Zrotation
							JOINT head_ee
							{
								OFFSET	0	179.8	-8.7
								CHANNELS 3  Xrotation Yrotation Zrotation
								End Site
								{
									OFFSET	1	0	0
								}
							}
						}
					}
					JOINT left_clavicle
					{
						OFFSET	-43.2	22.4	-70.8
						CHANNELS 3  Xrotation Yrotation Zrotation
						JOINT left_shoulder
						{
							OFFSET	-93.9	-5.79999	48.7
							CHANNELS 3  Xrotation Yrotation Zrotation
							JOINT left_elbow
							{
								OFFSET	-291.4	-30.8	15.2
								CHANNELS 3  Xrotation Yrotation Zrotation
								JOINT left_lowarm_twist
								{
									OFFSET	-110.7	-3.89999	13.6
									CHANNELS 3  Xrotation Yrotation Zrotation
									JOINT left_hand
									{
										OFFSET	-110.7	-3.89999	13.6
										CHANNELS 3  Xrotation Yrotation Zrotation
										JOINT left_ee
										{
											OFFSET	-80.8	-5.10001	12.1
											CHANNELS 3  Xrotation Yrotation Zrotation
											End Site
											{
												OFFSET	1	0	0
											}
										}
									}
								}
							}
						}
					}
					JOINT right_clavicle
					{
						OFFSET	43.2	22.4	-70.8
						CHANNELS 3  Xrotation Yrotation Zrotation
						JOINT right_shoulder
						{
							OFFSET	93.9	-5.79999	48.7
							CHANNELS 3  Xrotation Yrotation Zrotation
							JOINT right_elbow
							{
								OFFSET	291.4	-30.8	15.2
								CHANNELS 3  Xrotation Yrotation Zrotation
								JOINT right_lowarm_twist
								{
									OFFSET	110.7	-3.89999	13.6
									CHANNELS 3  Xrotation Yrotation Zrotation
									JOINT right_hand
									{
										OFFSET	110.7	-3.89999	13.6
										CHANNELS 3  Xrotation Yrotation Zrotation
										JOINT right_ee
										{
											OFFSET	80.8	-5.10001	12.1
											CHANNELS 3  Xrotation Yrotation Zrotation
											End Site
											{
												OFFSET	1	0	0
											}
										}
									}
								}
							}
						}
					}
				}
			}
		}
	}
	JOINT left_hip
	{
		OFFSET	-82.8	-127.5	0.300001
		CHANNELS 3  Xrotation Yrotation Zrotation
		JOINT left_knee
		{
			OFFSET	-28.2	-396.7	2.2
			CHANNELS 3  Xrotation Yrotation Zrotation
			JOINT left_ankle
			{
				OFFSET	-11.7	-411.3	35.4
				CHANNELS 3  Xrotation Yrotation Zrotation
				JOINT left_toes
				{
					OFFSET	0	-60	-88.6
					CHANNELS 3  Xrotation Yrotation Zrotation
					JOINT left_foot_ee
					{
						OFFSET	-22.5	-16.5	-42.2
						CHANNELS 3  Xrotation Yrotation Zrotation
						End Site
						{
							OFFSET	1	0	0
						}
					}
				}
			}
		}
	}
	JOINT right_hip
	{
		OFFSET	82.8	-127.5	0.300001
		CHANNELS 3  Xrotation Yrotation Zrotation
		JOINT right_knee
		{
			OFFSET	28.2	-396.7	2.2
			CHANNELS 3  Xrotation Yrotation Zrotation
			JOINT right_ankle
			{
				OFFSET	11.7	-411.3	35.4
				CHANNELS 3  Xrotation Yrotation Zrotation
				JOINT right_toes
				{
					OFFSET	0	-60	-88.6
					CHANNELS 3  Xrotation Yrotation Zrotation
					JOINT right_foot_ee
					{
						OFFSET	22.5	-16.5	-42.2
						CHANNELS 3  Xrotation Yrotation Zrotation
						End Site
						{
							OFFSET	1	0	0
						}
					}
				}
			}
		}
	}
}
MOTION
Frames: 6
Frame Time: 0.02
1316.79 719.687 -1273.88 -18.1912 63.6397 11.9374 4.73261 0.761554 3.85596 4.74074 0.514837 3.89652 4.7693 0.0116308 3.93032 4.7483 0.631732 3.87931 -17.9923 12.0034 -2.05894 -18.7409 24.1877 2.8896 -0.0 0.0 -0.0 -7.50601 15.1045 -10.4486 -1.0457 -35.9424 59.1272 2.38291 -49.7229 1.10428 -34.3856 -2.37482 3.62897 -0.593816 -0.838434 -4.33137 -0.0 0.0 -0.0 8.48688 3.84202 -16.6229 -34.0321 40.6628 -68.8251 0.44027 12.3036 -0.047454 34.3893 0.0900366 4.32684 1.43945 -5.79682 -11.9343 0.0 0.0 0.0 8.42567 11.6266 6.74014 4.39072 -0.20555 -0.642141 15.0503 -3.05974 -2.13551 37.3465 -0.0 -0.0 -0.0 0.0 -0.0 33.7139 27.2091 -10.7579 -23.0295 -0.247373 -3.50167 13.1226 -29.2033 1.98225 19.5345 -0.0 -0.0 0.0 0.0 0.0 
1314.41 717.097 -1270.96 -19.7412 62.0608 12.7306 4.84372 0.86299 3.92569 4.85208 0.611642 3.97254 4.88755 0.106442 4.01787 4.86579 0.739154 3.95084 -17.6516 13.1542 -1.11996 -18.4999 25.8882 4.17885 -0.0 0.0 -0.0 -7.51128 16.2119 -10.1031 -0.804783 -36.8679 59.7712 2.41947 -50.1523 1.13226 -35.2022 -2.45597 3.69522 -0.67887 -1.62002 -5.24204 -0.0 0.0 -0.0 8.53528 4.58116 -16.7261 -34.7135 40.2484 -68.4268 0.506205 14.0774 -0.0625016 34.5737 0.0975088 4.34921 1.41347 -6.94402 -12.195 0.0 0.0 0.0 9.72787 12.0147 7.34036 3.96978 -0.183713 -0.581269 16.7202 -2.80458 -2.35325 37.4948 -0.0 -0.0 -0.0 0.0 -0.0 33.5226 28.9697 -9.75448 -20.0957 -0.29449 -3.054 12.8469 -28.889 1.93822 16.9916 -0.0 -0.0 0.0 0.0 0.0 
1310.43 718.469 -1272.17 -21.315 61.5906 13.9745 4.92025 0.935123 3.88907 4.9284 0.685954 3.94058 4.96861 0.190033 3.99524 4.94727 0.818135 3.91531 -17.1032 13.2745 -1.14421 -17.9217 26.1224 4.06916 -0.0 0.0 -0.0 -7.33826 16.1838 -9.82579 -1.0117 -36.1507 60.0307 2.43881 -50.3765 1.14714 -34.89 -2.42483 3.67003 -0.766318 -1.01603 -5.56749 -0.0 0.0 -0.0 8.40405 3.64411 -16.4502 -35.5449 40.2573 -68.0386 0.544479 15.0947 -0.0721404 33.4199 0.0519471 4.20893 1.44914 -7.04099 -12.4697 0.0 0.0 0.0 10.7356 10.8249 7.35395 2.64123 -0.117743 -0.388142 19.033 -4.82684 -2.66854 37.7767 -0.0 -0.0 -0.0 0.0 -0.0 33.1038 30.0918 -9.2268 -17.9983 -0.314093 -2.7328 13.6771 -28.9419 2.0585 19.1289 -0.0 -0.0 0.0 0.0 0.0 
1300.9 717.93 -1273.62 -22.0897 60.8025 14.4634 5.09494 0.949531 3.75811 5.10251 0.708647 3.81081 5.14276 0.240533 3.86858 5.12288 0.848046 3.78227 -14.9253 13.5019 -2.26474 -15.6061 27.1517 2.55547 -0.0 0.0 -0.0 -7.62949 18.3661 -9.59183 -1.66635 -35.6451 60.3464 2.55387 -51.6672 1.23659 -35.847 -2.52071 3.74671 -0.876033 -1.67589 -6.59531 -0.0 0.0 -0.0 8.36024 1.98383 -16.3458 -36.148 40.0603 -67.0705 0.509562 14.167 -0.0633207 34.1048 0.0786503 4.2923 1.29988 -8.56234 -12.0458 0.0 0.0 0.0 11.6162 13.7176 7.64143 0.921096 -0.0390236 -0.135958 18.8984 -2.67581 -2.63222 36.4996 -0.0 -0.0 -0.0 0.0 -0.0 31.8568 31.0963 -8.73414 -15.6592 -0.322073 -2.37403 12.8532 -28.7843 1.93778 18.5709 -0.0 -0.0 0.0 0.0 0.0 
1296.41 717.12 -1271.52 -22.6152 60.1787 14.5694 5.21048 0.872168 3.75561 5.2181 0.631599 3.80341 5.25287 0.172191 3.85157 5.23302 0.777877 3.77624 -14.8248 13.6555 -1.73288 -15.5012 27.1298 3.08429 -0.0 0.0 -0.0 -7.7534 19.7776 -9.3136 -1.74575 -34.8182 61.194 2.6334 -52.5183 1.29934 -36.0054 -2.5367 3.75925 -0.793462 0.0205938 -5.29703 -0.0 0.0 -0.0 8.32397 1.73314 -16.2685 -36.7259 40.0134 -66.412 0.505633 14.0621 -0.0623624 34.3803 0.0896723 4.32575 1.16583 -9.84008 -11.6367 0.0 0.0 0.0 11.6173 14.2458 8.01565 1.08726 -0.0462966 -0.160419 20.2751 -3.83473 -2.81565 35.4244 -0.0 -0.0 -0.0 0.0 -0.0 31.4994 31.614 -7.9319 -14.9972 -0.321672 -2.27245 14.9482 -28.354 2.23113 18.6486 -0.0 -0.0 0.0 0.0 0.0 
1289.43 718.343 -1272.56 -22.7052 60.1808 14.5682 5.28839 0.786071 3.69029 5.2958 0.549823 3.73275 5.32452 0.103996 3.77154 5.30536 0.697921 3.70795 -15.0207 14.3328 -2.24233 -15.8054 28.7279 2.92807 -0.0 0.0 -0.0 -7.99337 21.35 -9.13841 -1.97212 -34.309 62.1705 2.77707 -53.9761 1.41446 -36.9577 -2.63358 3.83371 -1.03655 -1.59953 -7.6462 -0.0 0.0 -0.0 8.29983 1.04488 -16.2092 -37.0894 39.9111 -65.9986 0.478059 13.3233 -0.0558351 33.8632 0.0691186 4.26293 1.39374 -9.95057 -13.1775 0.0 0.0 0.0 11.5499 14.1681 8.25552 0.178339 -0.00738452 -0.0263713 21.2747 -2.11082 -2.92428 35.6238 -0.0 -0.0 -0.0 0.0 -0.0 30.8101 32.0319 -7.42991 -14.1402 -0.31941 -2.14098 12.9545 -28.742 1.95183 18.1437 -0.0 -0.0 0.0 0.0 0.0 
